<svg width="24" height="24" xmlns="http://www.w3.org/2000/svg" xmlns:xlink="http://www.w3.org/1999/xlink" id="praise-consumption-medium" data-supported-dps="24x24">
  <defs>
    <circle id="reactions-praise-consumption-medium-a" cx="11" cy="11" r="11"/>
  </defs>
  <g fill="none" fill-rule="evenodd">
    <rect width="24" height="24" rx="12"/>
    <g transform="translate(1 1)">
      <circle fill="#6DAE4F" cx="11" cy="11" r="11"/>
      <mask id="reactions-praise-consumption-medium-b" fill="#fff">
        <use xlink:href="#reactions-praise-consumption-medium-a"/>
      </mask>
      <use fill="#6DAE4F" xlink:href="#reactions-praise-consumption-medium-a"/>
      <g mask="url(#reactions-praise-consumption-medium-b)">
        <path d="M18.86 14l-.71-.53s-.29-2.82-.8-3.36a9.21 9.21 0 01-1.91-3.75c-.24-.83-.41-1.12-1.16-1.14a1.14 1.14 0 00-1 1.26c.01.378.044.756.1 1.13.206.99.508 1.958.9 2.89l-.28-.22-6.88-5.2a1.17 1.17 0 00-1.74.11 1.14 1.14 0 00.41 1.66l3.54 2.66 1.06.8-5.66-4.26A1.17 1.17 0 003 6.16a1.14 1.14 0 00.4 1.66l3.54 2.66 2.12 1.6-4.6-3.46a1.16 1.16 0 00-1.74.11 1.15 1.15 0 00.41 1.66l3.54 2.66 1.77 1.33-3.54-2.66a1.16 1.16 0 00-1.71.06 1.17 1.17 0 00.38 1.71L10 18.38a4.3 4.3 0 003.28.79l1.06.8a12.38 12.38 0 002.48-2.57 17.9 17.9 0 002.04-3.4z" fill="#DCF0CB"/>
        <path d="M14.61 10.76l-1.06-.8" fill="#93D870"/>
        <path d="M18.1 12.94c-.11-.83-.19-3.31-.57-3.71a6.71 6.71 0 01-2.09-2.92c-.24-.83-.41-1.12-1.16-1.14a1.14 1.14 0 00-1 1.26c.01.378.044.756.1 1.13.22 1.042.52 2.065.9 3.06L7.12 5.25a1.16 1.16 0 00-1.74.11A1.15 1.15 0 005.79 7l3.54 2.68 1.06.8-5.66-4.26A1.16 1.16 0 003 6.33 1.15 1.15 0 003.4 8l3.54 2.66 2.12 1.6-4.6-3.47a1.16 1.16 0 00-1.74.1 1.14 1.14 0 00.41 1.66l3.54 2.67 1.77 1.33-3.54-2.66a1.14 1.14 0 00-1.71.11 1.16 1.16 0 00.38 1.7L10 18.38a4.3 4.3 0 003.28.79" stroke="#165209" stroke-linecap="round" stroke-linejoin="round"/>
        <path d="M21.78 14.48l-.7-.53s-.3-2.82-.81-3.36a9.34 9.34 0 01-1.91-3.75C18.12 6 18 5.72 17.2 5.7a1.13 1.13 0 00-1 1.26c.01.378.044.756.1 1.13.28 1.45.58 2.65.62 2.72l-6.77-5.05a1.17 1.17 0 00-1.74.11 1.14 1.14 0 00.41 1.66l3.53 2.66 1.07.8-5.66-4.25a1.17 1.17 0 00-1.76.1 1.15 1.15 0 00.43 1.66L10 11.17l2.13 1.59L7.49 9.3a1.18 1.18 0 00-1.75.11 1.15 1.15 0 00.42 1.66l3.53 2.66 1.77 1.33-3.53-2.66a1.15 1.15 0 00-1.71.07 1.16 1.16 0 00.38 1.7l6.33 4.74a7 7 0 003.1.94 9.79 9.79 0 001.24.65 5.07 5.07 0 003.19-2 7.55 7.55 0 001.32-4.02z" fill="#DDF6D1"/>
        <path d="M6.79 1.72l.35 1.56M11.75 3.63l-1.31.92M9.74 1.43l-.95 2.48" stroke="#165209" stroke-linecap="round" stroke-linejoin="round"/>
        <path d="M6.79 1.72l.35 1.56M11.75 3.63l-1.31.92M9.74 1.43l-.95 2.48M6.79 1.72l.35 1.56M11.75 3.63l-1.31.92M9.74 1.43l-.95 2.48" fill="#231F20"/>
        <path d="M6.59 12.8c.89.69 7 5.39 7.68 5.64a3.28 3.28 0 002.31 0 2.43 2.43 0 00.74-.48" opacity=".5"/>
        <path d="M17.06 6.82a18.19 18.19 0 00.69 3.79" opacity=".8"/>
        <path d="M21.71 14.48A3.29 3.29 0 0121 13.3c-.08-.33-.1-.67-.17-1a3.58 3.58 0 00-.56-1.7 9.34 9.34 0 01-1.91-3.75C18.12 6 18 5.72 17.2 5.7a1.13 1.13 0 00-1 1.26c.01.378.044.756.1 1.13.28 1.45.58 2.65.62 2.72l-6.77-5.05a1.17 1.17 0 00-1.74.11 1.14 1.14 0 00.41 1.66l3.53 2.66 1.07.8-5.66-4.25a1.17 1.17 0 00-1.76.1 1.15 1.15 0 00.43 1.66L10 11.17l2.13 1.59L7.49 9.3a1.18 1.18 0 00-1.75.11 1.15 1.15 0 00.42 1.66l3.53 2.66 1.77 1.33-3.53-2.66a1.15 1.15 0 00-1.71.07 1.16 1.16 0 00.38 1.7l6.33 4.74a4.12 4.12 0 001.78.77c.28.06.58.08.91.15.478.074.94.226 1.37.45.31.16.67.188 1 .08a5.84 5.84 0 002.77-2 5.67 5.67 0 001.1-3.12 1.33 1.33 0 00-.15-.76z" stroke="#165209" stroke-linecap="round" stroke-linejoin="round"/>
      </g>
    </g>
  </g>
</svg>
