<svg width="24" height="24" xmlns="http://www.w3.org/2000/svg" id="interest-consumption-medium" data-supported-dps="24x24">
  <g fill="none" fill-rule="evenodd">
    <rect width="24" height="24" rx="12"/>
    <g transform="translate(1 1)">
      <circle fill="#F5BB5C" cx="11" cy="11" r="11"/>
      <path d="M12.29 19.48H9.77a.85.85 0 01-.84-.84v-2.1h4.2v2.1a.85.85 0 01-.84.84z" fill="#FFE1B2"/>
      <path d="M8.93 17v-.42A4.94 4.94 0 008.69 15a5 5 0 00-.81-1.26A5.14 5.14 0 016 9.84a5.04 5.04 0 1110.08 0 5.26 5.26 0 01-2 4l-.06.05a2 2 0 00-.29.32 2.76 2.76 0 00-.36.73 5.19 5.19 0 00-.24 1.61V17" fill="#FCF0DE"/>
      <path d="M5.99 2.68l1.06 1.39M16.49 2.68l-1.06 1.39M11.03 1v2.1" stroke="#5D3B01" stroke-linecap="round" stroke-linejoin="round"/>
      <path d="M10.15 5.93A3.51 3.51 0 008.23 7a4 4 0 00-1.07 1.9" stroke="#FFF" stroke-width="2" stroke-linecap="round" stroke-linejoin="round"/>
      <path d="M10.26 14.06a4 4 0 003.5-1 4.31 4.31 0 00-.22-6.5M13.13 13.6a3.61 3.61 0 00-.77 2.51"/>
      <path d="M12.29 19.48H9.77a.85.85 0 01-.84-.84v-2.1h4.2v2.1a.85.85 0 01-.84.84z" stroke="#5D3B01" stroke-linecap="round" stroke-linejoin="round"/>
      <path d="M8.93 17v-.42A4.94 4.94 0 008.69 15a2.55 2.55 0 00-.41-.74 4.17 4.17 0 00-.58-.67 4.84 4.84 0 01-.58-.59 5.05 5.05 0 01-.83-1.46A4.84 4.84 0 016 9.84h0A5 5 0 1114.93 13a6.44 6.44 0 01-.9.91 1.64 1.64 0 00-.31.33 2.73 2.73 0 00-.35.73 4.91 4.91 0 00-.24 1.61V17" stroke="#5D3B01" stroke-linecap="round" stroke-linejoin="round"/>
    </g>
  </g>
</svg>
