<svg width="24" height="24" xmlns="http://www.w3.org/2000/svg" id="like-consumption-medium" data-supported-dps="24x24">
  <g fill="none" fill-rule="evenodd">
    <rect width="24" height="24" rx="12"/>
    <g transform="translate(1 1)">
      <circle fill="#1485BD" cx="11" cy="11" r="11"/>
      <path d="M10.712 8.54H4.88A1.36 1.36 0 003.5 10 1.43 1.43 0 005 11.34h.25A1.21 1.21 0 004 12.59a1.25 1.25 0 001.15 1.25 1.25 1.25 0 00.52 2.23 1.25 1.25 0 00-.13.88 1.33 1.33 0 001.33 1h3.6c.472 0 .943-.06 1.4-.18l2.26-.66h3c1.58-.06 2-7.29 0-7.29h-.86c-.14 0-.23-.3-.62-.72-.58-.62-1.23-1.42-1.69-1.88a11.12 11.12 0 01-2.68-3.46c-.37-.8-.41-1.17-1.18-1.17a1.22 1.22 0 00-1 1.28c.032.422.085.843.16 1.26a12.32 12.32 0 001.55 3.46" fill="#E6F7FF"/>
      <path d="M10.712 8.54H4.88A1.38 1.38 0 003.5 10 1.42 1.42 0 005 11.36h.25A1.23 1.23 0 004 12.61a1.25 1.25 0 001.15 1.25 1.24 1.24 0 00.52 2.22 1.25 1.25 0 00-.13.88 1.33 1.33 0 001.33 1h3.6a6 6 0 001.4-.18l2.26-.66h3c1.58-.05 2-7.28 0-7.28h-.86c-.14 0-.23-.3-.62-.72-.58-.62-1.23-1.43-1.69-1.88a11.12 11.12 0 01-2.68-3.46c-.37-.81-.41-1.2-1.18-1.17a1.16 1.16 0 00-1 1.28c.017.405.054.809.11 1.21a12.1 12.1 0 001.55 3.44" stroke="#004B7C" stroke-linecap="round" stroke-linejoin="round"/>
    </g>
  </g>
</svg>
