<svg width="24" height="24" xmlns="http://www.w3.org/2000/svg" id="empathy-consumption-medium" data-supported-dps="24x24">
  <g fill="none" fill-rule="evenodd">
    <rect width="24" height="24" rx="12"/>
    <g transform="translate(1 1)">
      <circle fill="#DF704D" cx="11" cy="11" r="11"/>
      <path d="M10.54 6.3a4.09 4.09 0 00-5.83 0 4.18 4.18 0 000 5.88L11 18.5l6.29-6.32a4.18 4.18 0 000-5.88 4.1 4.1 0 00-2.92-1.22h0a4.07 4.07 0 00-2.9 1.24l-.47.44-.46-.46z" stroke="#77280C" fill="#FFF3F0"/>
      <path d="M16.39 6.57c.347.271.633.612.84 1 1.41 2.62-.95 4.26-2.43 5.75-1 1-1.91 1.92-2.9 2.84" opacity=".6"/>
      <path d="M7.52 6a3.42 3.42 0 00-1.19.16 2.9 2.9 0 00-1.49 1.28 3.89 3.89 0 00-.48 2v.15" opacity=".4"/>
      <path d="M10.54 6.22a4.09 4.09 0 00-5.83 0 4.18 4.18 0 000 5.88L11 18.42l6.29-6.32a4.18 4.18 0 000-5.88A4.1 4.1 0 0014.37 5h0a4.06 4.06 0 00-2.9 1.23l-.47.45-.46-.46z" stroke="#77280C" stroke-linecap="round" stroke-linejoin="round"/>
    </g>
  </g>
</svg>
