<svg width="24" height="24" fill="none" xmlns="http://www.w3.org/2000/svg" id="support-consumption-medium" data-supported-dps="24x24">
  <mask id="reactions-support-consumption-medium-a" maskUnits="userSpaceOnUse" x="1" y="1" width="22" height="22">
    <path d="M12 23c6.075 0 11-4.925 11-11S18.075 1 12 1 1 5.925 1 12s4.925 11 11 11z" fill="#fff"/>
  </mask>
  <g mask="url(#reactions-support-consumption-medium-a)">
    <path d="M12 23c6.075 0 11-4.925 11-11S18.075 1 12 1 1 5.925 1 12s4.925 11 11 11z" fill="#D8D8D8"/>
    <path d="M12 23c6.075 0 11-4.925 11-11S18.075 1 12 1 1 5.925 1 12s4.925 11 11 11z" fill="#BBA9D1"/>
    <path d="M8.364 14.28h-.21a.41.41 0 01-.114 0c-.356-.13-2.165-.82-3.377-1.16a.392.392 0 01-.283-.329 1.077 1.077 0 01.168-.79.638.638 0 01.522-.26.888.888 0 01.309.052c.241.093.465.226.664.392l.089.063.559.392c.209.146.392.271.523.37l1.306.523c.178.079.915.413.873.596-.041.183-.83.168-1.008.173l-.021-.021z" fill="#FDE7FF"/>
    <path opacity=".23" d="M5.086 11.934a.79.79 0 01.246.047c.252.105.488.246.7.418l1.103.774 2.196.94a5.03 5.03 0 01-1.176-.025h-.053c-.496-.189-2.206-.832-3.392-1.161a.188.188 0 01-.13-.152.889.889 0 01.13-.627.45.45 0 01.37-.172l.006-.042zm-.005-.392a.863.863 0 00-.7.34c-.178.27-.25.595-.2.914a.601.601 0 00.43.523c1.217.34 3.005 1.02 3.355 1.155.063.02.128.032.194.037h.25c.272 0 2.457.277 2.52 0-.428-.251-2.038-1.045-2.295-1.176l-1.296-.523c-.136-.1-.33-.23-.523-.36a5.776 5.776 0 01-.522-.382l-.09-.063a2.613 2.613 0 00-.72-.418 1.159 1.159 0 00-.377-.063l-.026.016z" fill="#FCE2BA"/>
    <path d="M21.228 19.905a34.062 34.062 0 01-5.3-.522h-.1a29.854 29.854 0 01-3.93-.816c-1.146-.345-2.275-.794-3.367-1.223l-.486-.188A101.662 101.662 0 015.4 16.084l-.288-.12c-.461-.18-.91-.392-1.343-.632-.601-.35-.784-.8-.523-1.333v-.042a.878.878 0 01.868-.497h.068c.087-.005.174-.005.261 0 .952.105 3.706 1.15 4.25 1.36l1.777.062h.042l4.02.136c-.314-.282-1.103-.784-3.027-1.28-.366-.095-.7-.2-.779-.466-.12-.414.017-.86.35-1.134.254-.15.548-.218.842-.194a4.5 4.5 0 011.046.126c.204.052.37.104.522.157.419.142.852.239 1.291.287.72.103 1.429.262 2.123.476 2.242.6 2.676 1.725 2.958 2.404-.088-.277 0-.073.042-.177l.063-.09h.151c.065.006.13.006.194 0 .387 0 1.119-.036 1.129-.036.183 0 1.046-.214 1.046-.042a9.41 9.41 0 01-.999 4.705.293.293 0 01-.214.151h-.042z" fill="#EAE2F3"/>
    <path d="M20.177 15.128a.146.146 0 00.147 0h-.147z" fill="#D67676"/>
    <path fill-rule="evenodd" clip-rule="evenodd" d="M8.93 4.638A2.226 2.226 0 005.854 4.6l-.036.04a2.148 2.148 0 000 3.068L9.171 11l3.359-3.298a2.144 2.144 0 000-3.064A2.196 2.196 0 0010.97 4c-.583 0-1.141.228-1.548.633l-.246.244-.247-.239z" fill="#ECAA96"/>
    <path clip-rule="evenodd" d="M22.89 15.306c.166.125.173 1.418-.185 2.556a5.426 5.426 0 01-1.285 2.114c-.19.18-7.039-.704-8.62-.976-1.582-.273-9.315-3.646-9.612-3.818-.297-.173-.324-1.411.524-1.668.848-.257 3.04 1.119 4.403 1.241 1.363.123 4.508.254 5.655.254 1.147 0-1.032-.804-1.593-1.021-.561-.217-1.48-.395-1.672-.976-.19-.581.428-1.012.937-1.012.339 0 1.246.223 2.72.67 1.45 0 2.652.202 3.604.606a4.2 4.2 0 012.163 2.03c.159.327 2.796-.124 2.961 0z" stroke="#493D57"/>
    <path d="M4.108 13.47c-.356-.965.224-1.47.885-1.47s1.342.612 2.444 1.295C8.172 13.751 9.36 14.32 11 15" stroke="#493D57"/>
    <path clip-rule="evenodd" d="M8.742 5.134a2.23 2.23 0 00-3.092.022 2.152 2.152 0 00-.035 3.047L8.988 11.5l3.373-3.302c.5-.497.726-1.2.608-1.89a2.174 2.174 0 00-1.204-1.588 2.213 2.213 0 00-2.52.423l-.257.238-.246-.247z" stroke="#77280C" stroke-linecap="round" stroke-linejoin="round"/>
  </g>
</svg>
