<svg width="24" height="24" xmlns="http://www.w3.org/2000/svg" xmlns:xlink="http://www.w3.org/1999/xlink" id="maybe-consumption-medium" data-supported-dps="24x24">
  <defs>
    <circle id="reactions-maybe-consumption-medium-a" cx="11" cy="11" r="11"/>
  </defs>
  <g fill="none" fill-rule="evenodd">
    <rect width="24" height="24" rx="12"/>
    <g transform="translate(1 1)">
      <circle fill="#DEB8DC" cx="11" cy="11" r="11"/>
      <mask id="reactions-maybe-consumption-medium-b" fill="#fff">
        <use xlink:href="#reactions-maybe-consumption-medium-a"/>
      </mask>
      <use fill="#DEB8DC" xlink:href="#reactions-maybe-consumption-medium-a"/>
      <g mask="url(#reactions-maybe-consumption-medium-b)">
        <g transform="translate(3 3)">
          <circle fill="#F9F0F8" cx="8.06" cy="7.94" r="7.94"/>
          <path d="M6.36 8.87h1.32" stroke="#523951" stroke-linecap="round" stroke-linejoin="round"/>
          <circle fill="#523951" cx="4.65" cy="5.33" r="1"/>
          <circle fill="#523951" cx="10.7" cy="5.79" r="1"/>
          <path d="M10.1 3.37a1.93 1.93 0 011.4 0 2 2 0 011.13.82M2.77.93A2 2 0 014.05.36a2 2 0 011.36.31M7.17.1A8 8 0 112.2 2.63" stroke="#523951" stroke-linecap="round" stroke-linejoin="round"/>
          <path d="M3.84 12.2l5.32-.89a.87.87 0 011 .73.92.92 0 01-.72 1l-2.22.37a.72.72 0 01.82.62.75.75 0 01-.56.85c.206.11.35.31.39.54a.77.77 0 01-.49.84.74.74 0 01.16.51.8.8 0 01-.69.71l-.26.06c-.74.15-1.25.24-2 .33a12.89 12.89 0 01-2.32-.18 1.52 1.52 0 01-1.13-1c-.5-1.05-.78-3-.16-3.6.62-.6.52-.44.81-1.12.29-.68.61-1.46.84-2.13.23-.67.33-1 .78-1.12a.87.87 0 011.07.51c.07.466.05.942-.06 1.4a3 3 0 000 1.46" fill="#F9F0F8"/>
          <path d="M9.16 11.31a.87.87 0 011 .73.92.92 0 01-.72 1l-2.22.37a.72.72 0 01.82.62.75.75 0 01-.56.85c.206.11.35.31.39.54a.77.77 0 01-.49.84.74.74 0 01.16.51.8.8 0 01-.69.71l-.26.06c-.74.15-1.25.24-2 .33a12.89 12.89 0 01-2.32-.18 1.52 1.52 0 01-1.13-1c-.5-1.05-.78-3-.16-3.6.62-.6.52-.44.81-1.12.29-.68.61-1.46.84-2.13.23-.67.33-1 .78-1.12a.87.87 0 011.07.51c.07.466.05.942-.06 1.4a3 3 0 000 1.46l4.74-.78z" stroke="#523951" stroke-linecap="round" stroke-linejoin="round"/>
        </g>
      </g>
    </g>
  </g>
</svg>
